<?xml version="1.0" encoding="UTF-8"?>
<svg id="Layer_1" data-name="Layer 1" xmlns="http://www.w3.org/2000/svg" viewBox="0 0 401.04 401.04">
  <defs>
    <style>
      .cls-1 {
        fill: #f9b511;
      }

      .cls-2 {
        fill: #fab511;
      }
    </style>
  </defs>
  <path class="cls-1" d="M269.98,125.07c56.52,51.05,42.21,143.76-26.6,175.52-76.58,35.35-162.29-28.63-150.04-111.9,12.31-83.73,113.42-120.72,176.64-63.61ZM194.18,133.98c-1.64,1.27-3.04,2.86-3.26,5.02-.68,6.8-.06,13.85,0,20.61.05,5.17-.65,12.67.01,17.5.32,2.37,2.68,4.83,4.8,5.75,4.89,2.11,10.05-1.4,10.74-6.47v-37.13c-1.09-5.71-7.45-9.05-12.31-5.28ZM182.05,170.66v-19.67c0-.1-.24-.31-.5-.26-.76.13-2.74.91-3.57,1.24-29.48,11.65-42.86,46.66-29,75.27,17.74,36.6,67.94,42.16,93.13,9.96,18.73-23.95,14.47-59.19-9.63-77.68-5.09-3.9-11.14-7.11-17.32-8.88v20.39c11.91,5.81,19.23,17.83,19.67,31.06.88,26.27-25.65,44.72-50.17,34.58-25.92-10.72-30.18-46.13-7.47-62.72,1.6-1.17,3.37-2.05,4.87-3.28Z"/>
  <path class="cls-2" d="M116.47,43.51c1.36,1.07,2.26,2.89,3.17,4.39,6.85,11.29,13.91,23.58,20.24,35.17,2.01,3.68,3.52,6.19,1.53,10.48-2.65,5.73-10.15,6.61-14.52,2.26l-24.35-42.33c-2.92-8.42,6.77-15.59,13.93-9.97Z"/>
  <path class="cls-2" d="M292.06,43.5c2.7,2.39,3.68,7.2,2.12,10.47l-23.19,40.61c-4.24,6.19-14.28,4.64-15.97-2.9-.77-3.45.28-5.24,1.82-8.14,7.08-13.35,15.48-26.4,22.91-39.57,3.23-3.05,8.9-3.5,12.31-.48Z"/>
  <path class="cls-2" d="M50.03,107.8c12.39,7.61,25.47,14.19,37.91,21.69,2.17,1.31,4.18,2.38,5.24,4.84,3.21,7.5-3.76,14.78-11.32,12.04l-41.92-24.04c-7.48-7.39.33-19.09,10.09-14.53Z"/>
  <path class="cls-2" d="M126.99,310.71c1.62-1.91,5.2-3.2,7.66-2.95,5.8.58,9.23,6.65,7.29,12.04l-23.84,41.64c-6.63,7.8-18.46.91-15.22-8.74l23.23-40.82c.27-.4.56-.8.87-1.17Z"/>
  <path class="cls-2" d="M270.22,310.24c8.49,13.85,16.32,28.21,24.51,42.28,3.24,9.51-8.15,16.23-15.05,9.06-7.07-12.66-14.8-25-21.78-37.7-2.15-3.92-3.87-6.06-2.21-10.76,2.09-5.93,10.18-7.15,14.54-2.88Z"/>
  <path class="cls-2" d="M358,296.6c-2.44,2.63-6.82,3.56-10.09,2.02l-40.78-23.26c-8.3-6.36-1.86-18.79,8.17-15.6l40.63,23.17c4.92,2.73,5.86,9.6,2.07,13.67Z"/>
  <path class="cls-2" d="M356.81,108.27c4.62,3.34,4.32,11.26-.5,14.3l-40.02,23.06c-9.92,4.71-17.57-7.3-10.01-14.57l41.21-23.78c2.94-1.39,6.71-.89,9.31.99Z"/>
  <path class="cls-2" d="M91.29,261.79c3.74,2.98,3.6,9.82.1,12.97-14.17,8.45-28.52,16.66-42.93,24.71-10.41,2.09-15.84-10.52-6.75-16.35,12.71-8.16,27.09-14.85,39.96-22.88,3.31-1.45,6.86-.64,9.62,1.55Z"/>
  <path class="cls-2" d="M205.45,384.87c-4.58,5.78-14.01,3.19-15.46-3.88v-48.88c2.48-9.63,15.44-9.2,17.46.49l.03,47.95c-.38,1.69-.96,2.98-2.03,4.33Z"/>
  <path class="cls-2" d="M203.54,19.52c1.77,1.14,3.7,4.15,3.93,6.26v47.73c-1.88,9.68-14.88,10.16-17.49.7l-.02-48.67c.95-6.2,8.21-9.48,13.57-6.02Z"/>
  <path class="cls-2" d="M73.3,196.07c5.97,4.39,3.56,14.31-3.64,15.71H20.77c-9.08-2.24-9.48-14.22-.73-17.23l49.65-.02c1.3.09,2.58.79,3.61,1.55Z"/>
  <path class="cls-2" d="M381.51,208.82c-1.04,1.31-3.37,2.8-5.05,2.98l-48.67-.03c-9.09-2.06-9.6-14.29-.73-17.23h50.1c6.2,2.08,8.52,9.01,4.35,14.28Z"/>
</svg>